<svg width="1527.4961914062499px" height="336.8375px" xmlns="http://www.w3.org/2000/svg" viewBox="-513.7480957031249 -93.41874999999999 1527.4961914062499 336.8375" style="background: rgb(39, 39, 39);" preserveAspectRatio="xMidYMid"><defs><linearGradient id="editing-glowing-gradient" x1="0.877354790111386" x2="0.12264520988861405" y1="0.8280295144952536" y2="0.1719704855047463"><stop offset="0" stop-color="#e5e5e5"></stop><stop offset="1" stop-color="#00ffff"></stop></linearGradient><filter id="editing-glowing" x="-100%" y="-100%" width="300%" height="300%"><feGaussianBlur in="SourceGraphic" result="blur" stdDeviation="26"></feGaussianBlur><feMerge><feMergeNode in="blur"></feMergeNode><feMergeNode in="SourceGraphic"></feMergeNode></feMerge></filter></defs><g filter="url(#editing-glowing)"><g transform="translate(-301.25776386260986, 145)"><path d="M107.80-41.40L107.80-41.40L107.80-41.40Q113-37.60 113-29.50L113-29.50L113-29.50Q113-21.40 109.50-15.70L109.50-15.70L109.50-15.70Q106-10 99.20-5.60L99.20-5.60L99.20-5.60Q84.60 3.80 59.10 3.80L59.10 3.80L59.10 3.80Q33.60 3.80 19.70-9.50L19.70-9.50L19.70-9.50Q5.80-22.80 5.80-46.40L5.80-46.40L5.80-46.40Q5.80-79.80 23.20-105.20L23.20-105.20L23.20-105.20Q36.40-124 60-132L60-132L60-132Q72.20-136 84.20-136L84.20-136L84.20-136Q96.20-136 103.60-134.40L103.60-134.40L103.60-134.40Q111-132.80 116.60-129.60L116.60-129.60L116.60-129.60Q128.80-122.60 128.80-111.40L128.80-111.40L128.80-111.40Q128.80-101.20 119.20-93.60L119.20-93.60L119.20-93.60Q110.40-86.80 103.20-86.80L103.20-86.80L103.20-86.80Q96-86.80 93-87.80L93-87.80L93-87.80Q93.80-95 93.80-99.70L93.80-99.70L93.80-99.70Q93.80-104.40 93.60-107.80L93.60-107.80L93.60-107.80Q93.40-111.20 92.40-114.40L92.40-114.40L92.40-114.40Q90.40-121.80 84.30-121.80L84.30-121.80L84.30-121.80Q78.20-121.80 72.10-116.10L72.10-116.10L72.10-116.10Q66-110.40 60.80-100.80L60.80-100.80L60.80-100.80Q49-79 49-53.20L49-53.20L49-53.20Q49-40.80 56-33.70L56-33.70L56-33.70Q63-26.60 78-26.60L78-26.60L78-26.60Q89.20-26.60 99.80-34L99.80-34L99.80-34Q104.40-37.20 107.80-41.40ZM171 0L127.40 0L152.80-132L196.80-132L171 0ZM221.80 0L199.80 0L223.80-132L266.80-132L298-41.20L314.60-132L336.80-131.80L312.40 0L266.60 0L237.80-87.40L221.80 0ZM427.20-30.80L427.20-30.80L427.20-30.80Q431-26 431-18.20L431-18.20L431-18.20Q431-7.40 423-1.70L423-1.70L423-1.70Q415 4 402.40 4L402.40 4L402.40 4Q395.20 4 384.20 2.40L384.20 2.40L384.20 2.40Q362.60-1 356-1L356-1L356-1Q349.40-1 346.80-0.70L346.80-0.70L346.80-0.70Q344.20-0.40 340 0L340 0L364.60-132L450.80-132L450.80-132Q450.80-119.80 444.90-113.40L444.90-113.40L444.90-113.40Q439-107 427.40-107L427.40-107L427.40-107Q415.80-107 404-112.40L404-112.40L397.80-77.40L433.40-77.40L433.40-77.40Q433.40-66.80 428.20-60.90L428.20-60.90L428.20-60.90Q423-55 414.30-55L414.30-55L414.30-55Q405.60-55 400.20-57L400.20-57L400.20-57Q394.80-59 394.20-59.60L394.20-59.60L387-21.80L387-21.80Q391.80-21.20 400.80-21.20L400.80-21.20L400.80-21.20Q416.20-21.20 427.20-30.80ZM466.40 0L443.40 0L479.60-132L521.40-132L530.60-56.60L567.80-132L602.80-132L606.40-33.20L606.40-33.20Q607.20-13.60 616.80-7.60L616.80-7.60L616.80-7.60Q614.60-3.60 608.20 0.20L608.20 0.20L608.20 0.20Q601.80 4 593.30 4L593.30 4L593.30 4Q584.80 4 579.80 1.60L579.80 1.60L579.80 1.60Q574.80-0.80 572-4.80L572-4.80L572-4.80Q567-12 567-25.80L567-25.80L567-87.60L527.60 0L502.80 0L488.80-89.80L466.40 0ZM713.20 4L713.20 4L713.20 4Q687.60 4 685.20-32.40L685.20-32.40L650.80-32.40L650.80-32.40Q646.80-23.20 644-15.20L644-15.20L638.80 0L610.80 0L673.80-132L716.80-132L725.20-34.80L725.20-34.80Q727.20-13.80 735.20-7.60L735.20-7.60L735.20-7.60Q729.40 4 713.20 4ZM668-72.40L657-47L684.60-47L682.20-98.40L682.20-103.80L668-72.40ZM830.40-30.80L830.40-30.80L830.40-30.80Q834.20-26 834.20-16.70L834.20-16.70L834.20-16.70Q834.20-7.40 827.10-1.70L827.10-1.70L827.10-1.70Q820 4 807.60 4L807.60 4L807.60 4Q800.40 4 789.20 2.40L789.20 2.40L789.20 2.40Q767.20-1 760.90-1L760.90-1L760.90-1Q754.60-1 752-0.70L752-0.70L752-0.70Q749.40-0.40 745.20 0L745.20 0L769.40-132L813.20-132L793.20-22L793.20-22Q795.80-21.60 798.20-21.60L798.20-21.60L803.20-21.60L803.20-21.60Q820-21.60 830.40-30.80ZM850.40-29.60L850.40-29.60L850.40-29.60Q850.40-37.40 852.40-47.40L852.40-47.40L868.60-132L912.80-132L896.80-46.80L896.80-46.80Q895-37.40 895-30.50L895-30.50L895-30.50Q895-23.60 897.90-20L897.90-20L897.90-20Q900.80-16.40 906.20-16.40L906.20-16.40L906.20-16.40Q911.60-16.40 915-17.80L915-17.80L915-17.80Q918.40-19.20 921.20-22.60L921.20-22.60L921.20-22.60Q926.60-29.40 930-46.80L930-46.80L946.20-132L976.40-132L960.40-47L960.40-47Q954.80-18.60 939.40-7.20L939.40-7.20L939.40-7.20Q924.40 4 894.80 4L894.80 4L894.80 4Q872.60 4 860.80-5.60L860.80-5.60L860.80-5.60Q850.40-14 850.40-29.60ZM986.60-124.60L986.60-124.60L986.60-124.60Q996-135.60 1011.60-135.60L1011.60-135.60L1011.60-135.60Q1024-135.60 1030.60-130.80L1030.60-130.80L1030.60-130.80Q1037.20-125.80 1041.60-113.60L1041.60-113.60L1050-89.80L1080.20-131.80L1107.20-131.80L1058.20-66.80L1070.80-31.20L1070.80-31.20Q1073.60-23.20 1078.50-17.30L1078.50-17.30L1078.50-17.30Q1083.40-11.40 1087.80-10.40L1087.80-10.40L1087.80-10.40Q1083.80-2.80 1076.90 0.60L1076.90 0.60L1076.90 0.60Q1070 4 1059.90 4L1059.90 4L1059.90 4Q1049.80 4 1042.70-2.60L1042.70-2.60L1042.70-2.60Q1035.60-9.20 1030.20-24L1030.20-24L1024.40-40L994.20 0L969.60 0L1015.60-63.80L1001.20-104L1001.20-104Q998-112.80 994.80-117.30L994.80-117.30L994.80-117.30Q991.60-121.80 986.60-124.60Z" fill="url(#editing-glowing-gradient)"></path></g></g><style>text {
  font-size: 64px;
  font-family: Arial Black;
  dominant-baseline: central;
  text-anchor: middle;
}</style></svg>